<svg xmlns="http://www.w3.org/2000/svg" version="1.1" xmlns:xlink="http://www.w3.org/1999/xlink" xmlns:svgjs="http://svgjs.dev/svgjs" width="1500" height="935" viewBox="0 0 1500 935"><g transform="matrix(1,0,0,1,-0.9090909090909918,0.3785425101214628)"><svg viewBox="0 0 396 247" data-background-color="#5f173c" preserveAspectRatio="xMidYMid meet" height="935" width="1500" xmlns="http://www.w3.org/2000/svg" xmlns:xlink="http://www.w3.org/1999/xlink"><g id="tight-bounds" transform="matrix(1,0,0,1,0.2400000000000091,-0.09999999999999432)"><svg viewBox="0 0 395.52 247.2" height="247.2" width="395.52"><g><svg></svg></g><g><svg viewBox="0 0 395.52 247.2" height="247.2" width="395.52"><g transform="matrix(1,0,0,1,75.54432,47.52161125225125)"><svg viewBox="0 0 244.43135999999998 152.1567774954975" height="152.1567774954975" width="244.43135999999998"><g><svg viewBox="0 0 244.43135999999998 152.1567774954975" height="152.1567774954975" width="244.43135999999998"><g><svg viewBox="0 0 244.43135999999998 152.1567774954975" height="152.1567774954975" width="244.43135999999998"><g><svg viewBox="0 0 244.43135999999998 152.1567774954975" height="152.1567774954975" width="244.43135999999998"><g id="textblocktransform"><svg viewBox="0 0 244.43135999999998 152.1567774954975" height="152.1567774954975" width="244.43135999999998" id="textblock"><g><svg viewBox="0 0 244.43135999999998 113.0530280968858" height="113.0530280968858" width="244.43135999999998"><g transform="matrix(1,0,0,1,0,0)"><svg width="244.43135999999998" viewBox="4.6 -40.1 86.69000000000001 40.1" height="113.0530280968858" data-palette-color="#bfbbdc"><path d="M26.2-34.55L26.2 0 21.3 0 21.3-12.95 9.55-12.95 9.55 0 4.6 0 4.6-30.2 8.95-34.55 26.2-34.55ZM21.3-27.1L24.4-30.2 9.55-30.2 9.55-13.55 13.3-17.3 21.3-17.3 21.3-27.1ZM53.35-21.6L53.35 0 48.45 0 48.45-21.6 40.45-21.6 40.45 0 35.5 0 35.5-25.95 40.45-25.95 40.45-22.2 44.1-25.95 49.05-25.95 53.35-21.6ZM66.9-40.1L66.9-14.95 79.25-27.15 79.25-21.85 74.9-17.55 79.25-13.15 79.25 0 74.34 0 74.34-14.2 66.9-14.2 66.9 0 61.95 0 61.95-35.15 66.9-40.1ZM91.29-35.15L91.29-30.2 86.34-30.2 86.34-35.15 91.29-35.15ZM91.29-27.15L91.29 0 86.34 0 86.34-22.15 91.29-27.15Z" opacity="1" transform="matrix(1,0,0,1,0,0)" fill="#bfbbdc" class="wordmark-text-0" data-fill-palette-color="primary" id="text-0"></path></svg></g></svg></g><g transform="matrix(1,0,0,1,0,139.74213475788622)"><svg viewBox="0 0 244.43135999999998 12.41464273761128" height="12.41464273761128" width="244.43135999999998"><g transform="matrix(1,0,0,1,0,0)"><svg width="244.43135999999998" viewBox="4.95 -38.85 971.8499999999999 49.35" height="12.41464273761128" data-palette-color="#bfbbdc"><path d="M9.05-31.1L9.05 0 4.95 0 4.95-36.65 10.55-36.65 21.25-16.8 21.5-16.8 32.2-36.65 37.65-36.65 37.65 0 33.55 0 33.55-31.1 33.3-31.1 30.35-25.3 21.3-8.95 12.25-25.3 9.3-31.1 9.05-31.1ZM57.3 0.65Q53.7 0.65 50.95-1.1 48.2-2.85 46.7-6.05 45.2-9.25 45.2-13.55L45.2-13.55Q45.2-17.8 46.7-21 48.2-24.2 50.92-25.93 53.65-27.65 57.25-27.65L57.25-27.65Q60.8-27.65 63.42-25.98 66.05-24.3 67.45-21.3 68.85-18.3 68.85-14.45L68.85-14.45 68.85-12.6 49.4-12.6 49.4-11.3Q49.4-7.55 51.57-5.2 53.75-2.85 57.5-2.85L57.5-2.85Q60.1-2.85 62.07-4.1 64.05-5.35 65.1-7.65L65.1-7.65 67.95-5.6Q66.65-2.75 63.85-1.05 61.05 0.65 57.3 0.65L57.3 0.65ZM49.4-15.9L49.4-15.6 64.55-15.6 64.55-16.1Q64.55-19.8 62.52-22.05 60.5-24.3 57.25-24.3L57.25-24.3Q53.8-24.3 51.6-21.95 49.4-19.6 49.4-15.9L49.4-15.9ZM79.95 0L75.95 0 75.95-27.05 79.95-27.05 79.95-22.7 80.15-22.7Q81.2-25 82.87-26.33 84.55-27.65 87.5-27.65L87.5-27.65Q90.35-27.65 92.55-26.3 94.75-24.95 95.8-22.15L95.8-22.15 95.9-22.15Q96.7-24.6 98.8-26.13 100.9-27.65 104.15-27.65L104.15-27.65Q108.35-27.65 110.67-24.98 113-22.3 113-17.4L113-17.4 113 0 109 0 109-16.6Q109-20.3 107.5-22.18 106-24.05 102.9-24.05L102.9-24.05Q100.2-24.05 98.35-22.68 96.5-21.3 96.5-18.75L96.5-18.75 96.5 0 92.5 0 92.5-16.6Q92.5-20.35 91.02-22.2 89.55-24.05 86.5-24.05L86.5-24.05Q83.8-24.05 81.87-22.68 79.95-21.3 79.95-18.75L79.95-18.75 79.95 0ZM131.84 0.65Q128.24 0.65 125.49-1.1 122.74-2.85 121.22-6.08 119.69-9.3 119.69-13.55L119.69-13.55Q119.69-17.8 121.22-21 122.74-24.2 125.49-25.95 128.24-27.7 131.84-27.7L131.84-27.7Q135.44-27.7 138.22-25.95 140.99-24.2 142.52-21 144.04-17.8 144.04-13.55L144.04-13.55Q144.04-9.3 142.52-6.08 140.99-2.85 138.22-1.1 135.44 0.65 131.84 0.65L131.84 0.65ZM131.84-2.9Q135.44-2.9 137.59-5.13 139.74-7.35 139.74-11.6L139.74-11.6 139.74-15.45Q139.74-19.7 137.59-21.93 135.44-24.15 131.84-24.15L131.84-24.15Q128.29-24.15 126.14-21.93 123.99-19.7 123.99-15.45L123.99-15.45 123.99-11.6Q123.99-7.35 126.14-5.13 128.29-2.9 131.84-2.9L131.84-2.9ZM155.09 0L151.09 0 151.09-27.05 155.09-27.05 155.09-22.1 155.34-22.1Q156.09-24.25 158.07-25.65 160.04-27.05 163.19-27.05L163.19-27.05 164.89-27.05 164.89-23.05 162.39-23.05Q159.09-23.05 157.09-21.75 155.09-20.45 155.09-18.4L155.09-18.4 155.09 0ZM172.29-33.6Q171.04-33.6 170.44-34.2 169.84-34.8 169.84-35.85L169.84-35.85 169.84-36.5Q169.84-37.55 170.44-38.15 171.04-38.75 172.29-38.75L172.29-38.75Q173.54-38.75 174.14-38.15 174.74-37.55 174.74-36.5L174.74-36.5 174.74-35.85Q174.74-34.8 174.14-34.2 173.54-33.6 172.29-33.6L172.29-33.6ZM174.24-27.05L174.24 0 170.24 0 170.24-27.05 174.24-27.05ZM185.09-3.5L201.34-3.5 201.34 0 180.54 0 180.54-3.35 196.04-23.55 180.99-23.55 180.99-27.05 200.89-27.05 200.89-24.05 185.09-3.5ZM217.13 0.65Q213.53 0.65 210.78-1.1 208.03-2.85 206.53-6.05 205.03-9.25 205.03-13.55L205.03-13.55Q205.03-17.8 206.53-21 208.03-24.2 210.76-25.93 213.48-27.65 217.08-27.65L217.08-27.65Q220.63-27.65 223.26-25.98 225.88-24.3 227.28-21.3 228.68-18.3 228.68-14.45L228.68-14.45 228.68-12.6 209.23-12.6 209.23-11.3Q209.23-7.55 211.41-5.2 213.58-2.85 217.33-2.85L217.33-2.85Q219.93-2.85 221.91-4.1 223.88-5.35 224.93-7.65L224.93-7.65 227.78-5.6Q226.48-2.75 223.68-1.05 220.88 0.65 217.13 0.65L217.13 0.65ZM209.23-15.9L209.23-15.6 224.38-15.6 224.38-16.1Q224.38-19.8 222.36-22.05 220.33-24.3 217.08-24.3L217.08-24.3Q213.63-24.3 211.43-21.95 209.23-19.6 209.23-15.9L209.23-15.9ZM261.43-13.6L257.43 0 252.53 0 245.28-27.05 249.18-27.05 252.33-14.65 255.08-3.4 255.18-3.4 258.33-14.65 261.93-27.05 265.53-27.05 269.28-14.65 272.48-3.4 272.58-3.4 275.18-14.65 278.38-27.05 282.18-27.05 274.93 0 269.98 0 265.98-13.6 263.73-21.45 263.63-21.45 261.43-13.6ZM290.48-33.6Q289.23-33.6 288.63-34.2 288.03-34.8 288.03-35.85L288.03-35.85 288.03-36.5Q288.03-37.55 288.63-38.15 289.23-38.75 290.48-38.75L290.48-38.75Q291.73-38.75 292.32-38.15 292.93-37.55 292.93-36.5L292.93-36.5 292.93-35.85Q292.93-34.8 292.32-34.2 291.73-33.6 290.48-33.6L290.48-33.6ZM292.43-27.05L292.43 0 288.43 0 288.43-27.05 292.43-27.05ZM312.57 0L307.27 0Q305.22 0 304.12-1.18 303.02-2.35 303.02-4.3L303.02-4.3 303.02-23.55 298.47-23.55 298.47-27.05 301.07-27.05Q302.37-27.05 302.87-27.58 303.37-28.1 303.37-29.45L303.37-29.45 303.37-34.6 307.02-34.6 307.02-27.05 312.97-27.05 312.97-23.55 307.02-23.55 307.02-3.5 312.57-3.5 312.57 0ZM323.87 0L319.87 0 319.87-38.85 323.87-38.85 323.87-22.7 324.07-22.7Q326.22-27.65 331.77-27.65L331.77-27.65Q335.97-27.65 338.4-24.95 340.82-22.25 340.82-17.4L340.82-17.4 340.82 0 336.82 0 336.82-16.6Q336.82-20.3 335.25-22.18 333.67-24.05 330.62-24.05L330.62-24.05Q327.82-24.05 325.85-22.68 323.87-21.3 323.87-18.75L323.87-18.75 323.87 0ZM372.12 0.65Q368.52 0.65 365.77-1.1 363.02-2.85 361.52-6.05 360.02-9.25 360.02-13.55L360.02-13.55Q360.02-17.8 361.52-21 363.02-24.2 365.74-25.93 368.47-27.65 372.07-27.65L372.07-27.65Q375.62-27.65 378.24-25.98 380.87-24.3 382.27-21.3 383.67-18.3 383.67-14.45L383.67-14.45 383.67-12.6 364.22-12.6 364.22-11.3Q364.22-7.55 366.39-5.2 368.57-2.85 372.32-2.85L372.32-2.85Q374.92-2.85 376.89-4.1 378.87-5.35 379.92-7.65L379.92-7.65 382.77-5.6Q381.47-2.75 378.67-1.05 375.87 0.65 372.12 0.65L372.12 0.65ZM364.22-15.9L364.22-15.6 379.37-15.6 379.37-16.1Q379.37-19.8 377.34-22.05 375.32-24.3 372.07-24.3L372.07-24.3Q368.62-24.3 366.42-21.95 364.22-19.6 364.22-15.9L364.22-15.9ZM397.61 0.65Q393.36 0.65 390.99-1.55 388.61-3.75 388.61-7.55L388.61-7.55Q388.61-11.4 391.46-13.43 394.31-15.45 400.06-15.45L400.06-15.45 405.51-15.45 405.51-18.15Q405.51-21.15 403.89-22.7 402.26-24.25 399.01-24.25L399.01-24.25Q394.46-24.25 392.01-20.15L392.01-20.15 389.61-22.4Q390.81-24.75 393.29-26.23 395.76-27.7 399.21-27.7L399.21-27.7Q404.06-27.7 406.79-25.3 409.51-22.9 409.51-18.6L409.51-18.6 409.51-3.5 412.61-3.5 412.61 0 410.46 0Q406.31 0 405.76-4.4L405.76-4.4 405.51-4.4Q404.66-1.95 402.59-0.65 400.51 0.65 397.61 0.65L397.61 0.65ZM398.31-2.75Q401.41-2.75 403.46-4.23 405.51-5.7 405.51-7.9L405.51-7.9 405.51-12.45 399.86-12.45Q396.31-12.45 394.56-11.38 392.81-10.3 392.81-8.25L392.81-8.25 392.81-7.15Q392.81-5.05 394.29-3.9 395.76-2.75 398.31-2.75L398.31-2.75ZM426.86 0.65Q423.31 0.65 420.71-0.73 418.11-2.1 416.21-4.65L416.21-4.65 419.11-7Q420.71-4.9 422.66-3.83 424.61-2.75 427.11-2.75L427.11-2.75Q429.91-2.75 431.46-3.95 433.01-5.15 433.01-7.3L433.01-7.3Q433.01-9.1 431.86-10.23 430.71-11.35 428.06-11.7L428.06-11.7 425.91-12Q417.26-13.2 417.26-19.8L417.26-19.8Q417.26-23.65 419.94-25.68 422.61-27.7 426.86-27.7L426.86-27.7Q430.01-27.7 432.29-26.58 434.56-25.45 436.26-23.35L436.26-23.35 433.61-20.95Q432.56-22.4 430.79-23.35 429.01-24.3 426.61-24.3L426.61-24.3Q423.96-24.3 422.54-23.15 421.11-22 421.11-20L421.11-20Q421.11-18.05 422.41-17.1 423.71-16.15 426.46-15.65L426.46-15.65 428.56-15.35Q432.86-14.75 434.86-12.83 436.86-10.9 436.86-7.75L436.86-7.75Q436.86-3.85 434.19-1.6 431.51 0.65 426.86 0.65L426.86 0.65ZM454.41 0.65Q450.81 0.65 448.06-1.1 445.31-2.85 443.81-6.05 442.31-9.25 442.31-13.55L442.31-13.55Q442.31-17.8 443.81-21 445.31-24.2 448.03-25.93 450.76-27.65 454.36-27.65L454.36-27.65Q457.91-27.65 460.53-25.98 463.16-24.3 464.56-21.3 465.96-18.3 465.96-14.45L465.96-14.45 465.96-12.6 446.51-12.6 446.51-11.3Q446.51-7.55 448.68-5.2 450.86-2.85 454.61-2.85L454.61-2.85Q457.21-2.85 459.18-4.1 461.16-5.35 462.21-7.65L462.21-7.65 465.06-5.6Q463.76-2.75 460.96-1.05 458.16 0.65 454.41 0.65L454.41 0.65ZM446.51-15.9L446.51-15.6 461.66-15.6 461.66-16.1Q461.66-19.8 459.63-22.05 457.61-24.3 454.36-24.3L454.36-24.3Q450.91-24.3 448.71-21.95 446.51-19.6 446.51-15.9L446.51-15.9ZM473.11 6.7L469.76 6.7Q471.36 5.05 472.23 3.63 473.11 2.2 473.51 0.5L473.51 0.5Q471.56 0.05 471.56-2.15L471.56-2.15 471.56-2.85Q471.56-4.2 472.33-5 473.11-5.8 474.61-5.8L474.61-5.8Q476.11-5.8 476.88-5 477.66-4.2 477.66-2.85L477.66-2.85 477.66-2.15Q477.66-0.05 476.43 2.43 475.21 4.9 473.11 6.7L473.11 6.7ZM506.65 0L503 0Q500.95 0 499.8-1.18 498.65-2.35 498.65-4.2L498.65-4.2 498.65-38.85 502.65-38.85 502.65-3.5 506.65-3.5 506.65 0ZM523 0.65Q519.4 0.65 516.65-1.1 513.9-2.85 512.4-6.05 510.9-9.25 510.9-13.55L510.9-13.55Q510.9-17.8 512.4-21 513.9-24.2 516.62-25.93 519.35-27.65 522.95-27.65L522.95-27.65Q526.5-27.65 529.12-25.98 531.75-24.3 533.15-21.3 534.55-18.3 534.55-14.45L534.55-14.45 534.55-12.6 515.1-12.6 515.1-11.3Q515.1-7.55 517.27-5.2 519.45-2.85 523.2-2.85L523.2-2.85Q525.8-2.85 527.77-4.1 529.75-5.35 530.8-7.65L530.8-7.65 533.65-5.6Q532.35-2.75 529.55-1.05 526.75 0.65 523 0.65L523 0.65ZM515.1-15.9L515.1-15.6 530.25-15.6 530.25-16.1Q530.25-19.8 528.22-22.05 526.2-24.3 522.95-24.3L522.95-24.3Q519.5-24.3 517.3-21.95 515.1-19.6 515.1-15.9L515.1-15.9ZM548.5 0.65Q544.25 0.65 541.87-1.55 539.5-3.75 539.5-7.55L539.5-7.55Q539.5-11.4 542.35-13.43 545.2-15.45 550.95-15.45L550.95-15.45 556.39-15.45 556.39-18.15Q556.39-21.15 554.77-22.7 553.14-24.25 549.89-24.25L549.89-24.25Q545.35-24.25 542.89-20.15L542.89-20.15 540.5-22.4Q541.7-24.75 544.17-26.23 546.64-27.7 550.1-27.7L550.1-27.7Q554.95-27.7 557.67-25.3 560.39-22.9 560.39-18.6L560.39-18.6 560.39-3.5 563.5-3.5 563.5 0 561.35 0Q557.2 0 556.64-4.4L556.64-4.4 556.39-4.4Q555.55-1.95 553.47-0.65 551.39 0.65 548.5 0.65L548.5 0.65ZM549.2-2.75Q552.3-2.75 554.35-4.23 556.39-5.7 556.39-7.9L556.39-7.9 556.39-12.45 550.75-12.45Q547.2-12.45 545.45-11.38 543.7-10.3 543.7-8.25L543.7-8.25 543.7-7.15Q543.7-5.05 545.17-3.9 546.64-2.75 549.2-2.75L549.2-2.75ZM573.69 0L569.69 0 569.69-27.05 573.69-27.05 573.69-22.1 573.94-22.1Q574.69-24.25 576.67-25.65 578.64-27.05 581.79-27.05L581.79-27.05 583.49-27.05 583.49-23.05 580.99-23.05Q577.69-23.05 575.69-21.75 573.69-20.45 573.69-18.4L573.69-18.4 573.69 0ZM592.89 0L588.89 0 588.89-27.05 592.89-27.05 592.89-22.7 593.09-22.7Q595.24-27.65 600.79-27.65L600.79-27.65Q604.99-27.65 607.41-24.95 609.84-22.25 609.84-17.4L609.84-17.4 609.84 0 605.84 0 605.84-16.6Q605.84-20.3 604.26-22.18 602.69-24.05 599.64-24.05L599.64-24.05Q596.84-24.05 594.86-22.68 592.89-21.3 592.89-18.75L592.89-18.75 592.89 0ZM644.28-13.6L640.28 0 635.38 0 628.13-27.05 632.03-27.05 635.18-14.65 637.93-3.4 638.03-3.4 641.18-14.65 644.78-27.05 648.38-27.05 652.13-14.65 655.33-3.4 655.43-3.4 658.03-14.65 661.23-27.05 665.03-27.05 657.78 0 652.83 0 648.83-13.6 646.58-21.45 646.48-21.45 644.28-13.6ZM673.33-33.6Q672.08-33.6 671.48-34.2 670.88-34.8 670.88-35.85L670.88-35.85 670.88-36.5Q670.88-37.55 671.48-38.15 672.08-38.75 673.33-38.75L673.33-38.75Q674.58-38.75 675.18-38.15 675.78-37.55 675.78-36.5L675.78-36.5 675.78-35.85Q675.78-34.8 675.18-34.2 674.58-33.6 673.33-33.6L673.33-33.6ZM675.28-27.05L675.28 0 671.28 0 671.28-27.05 675.28-27.05ZM695.43 0L690.13 0Q688.08 0 686.98-1.18 685.88-2.35 685.88-4.3L685.88-4.3 685.88-23.55 681.33-23.55 681.33-27.05 683.93-27.05Q685.23-27.05 685.73-27.58 686.23-28.1 686.23-29.45L686.23-29.45 686.23-34.6 689.88-34.6 689.88-27.05 695.83-27.05 695.83-23.55 689.88-23.55 689.88-3.5 695.43-3.5 695.43 0ZM706.73 0L702.73 0 702.73-38.85 706.73-38.85 706.73-22.7 706.93-22.7Q709.08-27.65 714.63-27.65L714.63-27.65Q718.83-27.65 721.25-24.95 723.68-22.25 723.68-17.4L723.68-17.4 723.68 0 719.68 0 719.68-16.6Q719.68-20.3 718.1-22.18 716.53-24.05 713.48-24.05L713.48-24.05Q710.68-24.05 708.7-22.68 706.73-21.3 706.73-18.75L706.73-18.75 706.73 0ZM754.97 0.65Q751.37 0.65 748.62-1.1 745.87-2.85 744.37-6.05 742.87-9.25 742.87-13.55L742.87-13.55Q742.87-17.8 744.37-21 745.87-24.2 748.6-25.93 751.32-27.65 754.92-27.65L754.92-27.65Q758.47-27.65 761.1-25.98 763.72-24.3 765.12-21.3 766.52-18.3 766.52-14.45L766.52-14.45 766.52-12.6 747.07-12.6 747.07-11.3Q747.07-7.55 749.25-5.2 751.42-2.85 755.17-2.85L755.17-2.85Q757.77-2.85 759.75-4.1 761.72-5.35 762.77-7.65L762.77-7.65 765.62-5.6Q764.32-2.75 761.52-1.05 758.72 0.65 754.97 0.65L754.97 0.65ZM747.07-15.9L747.07-15.6 762.22-15.6 762.22-16.1Q762.22-19.8 760.2-22.05 758.17-24.3 754.92-24.3L754.92-24.3Q751.47-24.3 749.27-21.95 747.07-19.6 747.07-15.9L747.07-15.9ZM779.07 0L775.07 0 775.07-23.55 770.57-23.55 770.57-27.05 775.07-27.05 775.07-32.8Q775.07-35.6 776.52-37.23 777.97-38.85 780.72-38.85L780.72-38.85 784.92-38.85 784.92-35.35 779.07-35.35 779.07-27.05 784.92-27.05 784.92-23.55 779.07-23.55 779.07 0ZM795.97 0L791.97 0 791.97-23.55 787.47-23.55 787.47-27.05 791.97-27.05 791.97-32.8Q791.97-35.6 793.42-37.23 794.87-38.85 797.62-38.85L797.62-38.85 801.82-38.85 801.82-35.35 795.97-35.35 795.97-27.05 801.82-27.05 801.82-23.55 795.97-23.55 795.97 0ZM809.41-33.6Q808.16-33.6 807.56-34.2 806.96-34.8 806.96-35.85L806.96-35.85 806.96-36.5Q806.96-37.55 807.56-38.15 808.16-38.75 809.41-38.75L809.41-38.75Q810.66-38.75 811.26-38.15 811.86-37.55 811.86-36.5L811.86-36.5 811.86-35.85Q811.86-34.8 811.26-34.2 810.66-33.6 809.41-33.6L809.41-33.6ZM811.36-27.05L811.36 0 807.36 0 807.36-27.05 811.36-27.05ZM830.46 0.65Q824.81 0.65 821.61-3.18 818.41-7 818.41-13.55L818.41-13.55Q818.41-20.1 821.61-23.88 824.81-27.65 830.46-27.65L830.46-27.65Q834.26-27.65 836.76-25.98 839.26-24.3 840.51-21.4L840.51-21.4 837.16-19.7Q836.36-21.8 834.64-22.95 832.91-24.1 830.46-24.1L830.46-24.1Q826.71-24.1 824.71-21.83 822.71-19.55 822.71-15.75L822.71-15.75 822.71-11.3Q822.71-7.45 824.71-5.18 826.71-2.9 830.46-2.9L830.46-2.9Q835.51-2.9 837.86-7.65L837.86-7.65 840.76-5.75Q839.41-2.75 836.79-1.05 834.16 0.65 830.46 0.65L830.46 0.65ZM848.81-33.6Q847.56-33.6 846.96-34.2 846.36-34.8 846.36-35.85L846.36-35.85 846.36-36.5Q846.36-37.55 846.96-38.15 847.56-38.75 848.81-38.75L848.81-38.75Q850.06-38.75 850.66-38.15 851.26-37.55 851.26-36.5L851.26-36.5 851.26-35.85Q851.26-34.8 850.66-34.2 850.06-33.6 848.81-33.6L848.81-33.6ZM850.76-27.05L850.76 0 846.76 0 846.76-27.05 850.76-27.05ZM869.96 0.65Q866.36 0.65 863.61-1.1 860.86-2.85 859.36-6.05 857.86-9.25 857.86-13.55L857.86-13.55Q857.86-17.8 859.36-21 860.86-24.2 863.58-25.93 866.31-27.65 869.91-27.65L869.91-27.65Q873.46-27.65 876.08-25.98 878.71-24.3 880.11-21.3 881.51-18.3 881.51-14.45L881.51-14.45 881.51-12.6 862.06-12.6 862.06-11.3Q862.06-7.55 864.23-5.2 866.41-2.85 870.16-2.85L870.16-2.85Q872.76-2.85 874.73-4.1 876.71-5.35 877.76-7.65L877.76-7.65 880.61-5.6Q879.31-2.75 876.51-1.05 873.71 0.65 869.96 0.65L869.96 0.65ZM862.06-15.9L862.06-15.6 877.21-15.6 877.21-16.1Q877.21-19.8 875.18-22.05 873.16-24.3 869.91-24.3L869.91-24.3Q866.46-24.3 864.26-21.95 862.06-19.6 862.06-15.9L862.06-15.9ZM892.6 0L888.6 0 888.6-27.05 892.6-27.05 892.6-22.7 892.8-22.7Q894.95-27.65 900.5-27.65L900.5-27.65Q904.7-27.65 907.13-24.95 909.55-22.25 909.55-17.4L909.55-17.4 909.55 0 905.55 0 905.55-16.6Q905.55-20.3 903.98-22.18 902.4-24.05 899.35-24.05L899.35-24.05Q896.55-24.05 894.58-22.68 892.6-21.3 892.6-18.75L892.6-18.75 892.6 0ZM928.35 0.65Q922.7 0.65 919.5-3.18 916.3-7 916.3-13.55L916.3-13.55Q916.3-20.1 919.5-23.88 922.7-27.65 928.35-27.65L928.35-27.65Q932.15-27.65 934.65-25.98 937.15-24.3 938.4-21.4L938.4-21.4 935.05-19.7Q934.25-21.8 932.53-22.95 930.8-24.1 928.35-24.1L928.35-24.1Q924.6-24.1 922.6-21.83 920.6-19.55 920.6-15.75L920.6-15.75 920.6-11.3Q920.6-7.45 922.6-5.18 924.6-2.9 928.35-2.9L928.35-2.9Q933.4-2.9 935.75-7.65L935.75-7.65 938.65-5.75Q937.3-2.75 934.68-1.05 932.05 0.65 928.35 0.65L928.35 0.65ZM947.1 10.5L944.8 10.5 944.8 7 949.1 7 951.2 1 941.05-27.05 945.1-27.05 951.75-8.25 952.95-4.1 953.25-4.1 954.6-8.25 961.3-27.05 965.3-27.05 953.15 6.45Q952.5 8.1 951.82 8.95 951.15 9.8 950.07 10.15 949 10.5 947.1 10.5L947.1 10.5ZM975.95-24.7L974.75-9.2 972.75-9.2 971.55-24.7 971.55-36.65 975.95-36.65 975.95-24.7ZM973.75 0.6Q972.2 0.6 971.45-0.18 970.7-0.95 970.7-2.3L970.7-2.3 970.7-2.95Q970.7-4.3 971.45-5.08 972.2-5.85 973.75-5.85L973.75-5.85Q975.3-5.85 976.05-5.08 976.8-4.3 976.8-2.95L976.8-2.95 976.8-2.3Q976.8-0.95 976.05-0.18 975.3 0.6 973.75 0.6L973.75 0.6Z" opacity="1" transform="matrix(1,0,0,1,0,0)" fill="#bfbbdc" class="slogan-text-1" data-fill-palette-color="secondary" id="text-1"></path></svg></g></svg></g></svg></g></svg></g></svg></g></svg></g></svg></g><g><path d="M0 123.6c0-68.262 55.338-123.6 123.6-123.6 33.089 0 63.141 13.003 85.326 34.177l-7.565 0c-20.811-18.112-48.005-29.079-77.761-29.079-65.447 0-118.502 53.055-118.502 118.502 0 65.447 53.055 118.502 118.502 118.502 29.756 0 56.95-10.967 77.761-29.079h7.565c-22.185 21.174-52.237 34.177-85.326 34.177-68.262 0-123.6-55.338-123.6-123.6z" fill="#bfbbdc" stroke="transparent" data-fill-palette-color="tertiary"></path></g></svg></g><defs></defs></svg><rect width="395.52" height="247.2" fill="none" stroke="none" visibility="hidden"></rect></g></svg></g></svg>